<svg width="89" height="89" viewBox="0 0 89 89" fill="none" xmlns="http://www.w3.org/2000/svg">
<g filter="url(#filter0_d_237_315)">
<circle cx="44.5" cy="40.5" r="40.5" fill="#65C561"/>
</g>
<path d="M60.2377 38.25H48.9877V27C48.9877 25.6719 47.8159 24.5 46.4877 24.5H43.9877C42.5815 24.5 41.4877 25.6719 41.4877 27V38.25H30.2377C28.8315 38.25 27.7377 39.4219 27.7377 40.75V43.25C27.7377 44.6562 28.8315 45.75 30.2377 45.75H41.4877V57C41.4877 58.4062 42.5815 59.5 43.9877 59.5H46.4877C47.8159 59.5 48.9877 58.4062 48.9877 57V45.75H60.2377C61.5659 45.75 62.7377 44.6562 62.7377 43.25V40.75C62.7377 39.4219 61.5659 38.25 60.2377 38.25Z" fill="white"/>
<defs>
<filter id="filter0_d_237_315" x="0" y="0" width="89" height="89" filterUnits="userSpaceOnUse" color-interpolation-filters="sRGB">
<feFlood flood-opacity="0" result="BackgroundImageFix"/>
<feColorMatrix in="SourceAlpha" type="matrix" values="0 0 0 0 0 0 0 0 0 0 0 0 0 0 0 0 0 0 127 0" result="hardAlpha"/>
<feOffset dy="4"/>
<feGaussianBlur stdDeviation="2"/>
<feComposite in2="hardAlpha" operator="out"/>
<feColorMatrix type="matrix" values="0 0 0 0 0 0 0 0 0 0 0 0 0 0 0 0 0 0 0.5 0"/>
<feBlend mode="normal" in2="BackgroundImageFix" result="effect1_dropShadow_237_315"/>
<feBlend mode="normal" in="SourceGraphic" in2="effect1_dropShadow_237_315" result="shape"/>
</filter>
</defs>
</svg>
