<svg width="50" height="48" viewBox="0 0 50 48" fill="none" xmlns="http://www.w3.org/2000/svg">
<path d="M50 19.6896C50 18.2955 49.0451 17.1159 47.9167 17.1159H42.0139L32.7257 1.45936C31.8576 -0.149185 30.1215 -0.470895 28.9062 0.708706C27.6042 1.78107 27.3437 3.9258 28.2986 5.42711L35.1562 17.1159H14.7569L21.6146 5.42711C22.5694 3.9258 22.309 1.78107 21.0069 0.708706C19.7917 -0.470895 18.0556 -0.149185 17.1875 1.45936L7.89931 17.1159H2.08333C0.868056 17.1159 0 18.2955 0 19.6896V21.4054C0 22.9067 0.868056 23.979 2.08333 23.979H2.77778L5.03472 43.6033C5.29514 46.177 7.03125 48 9.11458 48H40.7986C42.8819 48 44.6181 46.177 44.8785 43.6033L47.2222 23.979H47.9167C49.0451 23.979 50 22.9067 50 21.4054V19.6896ZM27.0833 38.5632C27.0833 40.0645 26.1285 41.1369 25 41.1369C23.7847 41.1369 22.9167 40.0645 22.9167 38.5632V26.5527C22.9167 25.1586 23.7847 23.979 25 23.979C26.1285 23.979 27.0833 25.1586 27.0833 26.5527V38.5632ZM36.8056 38.5632C36.8056 40.0645 35.8507 41.1369 34.7222 41.1369C33.5069 41.1369 32.6389 40.0645 32.6389 38.5632V26.5527C32.6389 25.1586 33.5069 23.979 34.7222 23.979C35.8507 23.979 36.8056 25.1586 36.8056 26.5527V38.5632ZM17.3611 38.5632C17.3611 40.0645 16.4062 41.1369 15.2778 41.1369C14.0625 41.1369 13.1944 40.0645 13.1944 38.5632V26.5527C13.1944 25.1586 14.0625 23.979 15.2778 23.979C16.4062 23.979 17.3611 25.1586 17.3611 26.5527V38.5632Z" fill="#3F8ACD"/>
</svg>
