<svg width="29" height="29" viewBox="0 0 29 29" fill="none" xmlns="http://www.w3.org/2000/svg">
<path d="M20.1562 14L27.9688 6.1875C28.9844 5.25 28.9844 3.6875 27.9688 2.75L26.25 1.03125C25.3125 0.015625 23.75 0.015625 22.8125 1.03125L15 8.84375L7.10938 1.03125C6.17188 0.015625 4.60938 0.015625 3.67188 1.03125L1.95312 2.75C0.9375 3.6875 0.9375 5.25 1.95312 6.1875L9.76562 14L1.95312 21.8906C0.9375 22.8281 0.9375 24.3906 1.95312 25.3281L3.67188 27.0469C4.60938 28.0625 6.17188 28.0625 7.10938 27.0469L15 19.2344L22.8125 27.0469C23.75 28.0625 25.3125 28.0625 26.25 27.0469L27.9688 25.3281C28.9844 24.3906 28.9844 22.8281 27.9688 21.8906L20.1562 14Z" fill="black"/>
</svg>
