<svg width="26" height="25" viewBox="0 0 26 25" fill="none" xmlns="http://www.w3.org/2000/svg">
<path d="M13 0.515625C6.31055 0.515625 0.890625 5.98438 0.890625 12.625C0.890625 19.3145 6.31055 24.7344 13 24.7344C19.6406 24.7344 25.1094 19.3145 25.1094 12.625C25.1094 5.98438 19.6406 0.515625 13 0.515625ZM13 5.88672C14.123 5.88672 15.0508 6.81445 15.0508 7.9375C15.0508 9.10938 14.123 9.98828 13 9.98828C11.8281 9.98828 10.9492 9.10938 10.9492 7.9375C10.9492 6.81445 11.8281 5.88672 13 5.88672ZM15.7344 18.2891C15.7344 18.6309 15.4414 18.875 15.1484 18.875H10.8516C10.5098 18.875 10.2656 18.6309 10.2656 18.2891V17.1172C10.2656 16.8242 10.5098 16.5312 10.8516 16.5312H11.4375V13.4062H10.8516C10.5098 13.4062 10.2656 13.1621 10.2656 12.8203V11.6484C10.2656 11.3555 10.5098 11.0625 10.8516 11.0625H13.9766C14.2695 11.0625 14.5625 11.3555 14.5625 11.6484V16.5312H15.1484C15.4414 16.5312 15.7344 16.8242 15.7344 17.1172V18.2891Z" fill="#E69900"/>
</svg>
