<svg width="30" height="30" viewBox="0 0 30 30" fill="none" xmlns="http://www.w3.org/2000/svg">
<path fill-rule="evenodd" clip-rule="evenodd" d="M14.9721 3.2153C14.0764 3.19913 13.1862 3.35975 12.3525 3.68799C11.5189 4.01622 10.7582 4.50562 10.1139 5.12818C9.46961 5.75074 8.95443 6.49423 8.59783 7.31611C8.24124 8.13799 8.05022 9.02212 8.03571 9.9179V19.2861C8.03571 19.8544 7.80995 20.3994 7.40809 20.8013C7.00622 21.2031 6.46118 21.4289 5.89286 21.4289H3.21429C2.3618 21.4289 1.54424 21.0903 0.941442 20.4875C0.338647 19.8847 0 19.0672 0 18.2147L0 13.9292C0 13.0767 0.338647 12.2592 0.941442 11.6564C1.54424 11.0537 2.3618 10.715 3.21429 10.715H4.82143V9.87934C4.84098 8.56237 5.11978 7.26216 5.64191 6.05295C6.16404 4.84375 6.91927 3.74924 7.86447 2.83193C8.80967 1.91463 9.92632 1.1925 11.1506 0.706786C12.375 0.221074 13.683 -0.018707 15 0.00113849C16.317 -0.018707 17.625 0.221074 18.8494 0.706786C20.0737 1.1925 21.1903 1.91463 22.1355 2.83193C23.0807 3.74924 23.836 4.84375 24.3581 6.05295C24.8802 7.26216 25.159 8.56237 25.1786 9.87934V10.715H26.7857C27.6382 10.715 28.4558 11.0537 29.0586 11.6564C29.6614 12.2592 30 13.0767 30 13.9292V18.2147C30 19.0672 29.6614 19.8847 29.0586 20.4875C28.4558 21.0903 27.6382 21.4289 26.7857 21.4289H25.1786V22.5003C25.1789 23.9483 24.6459 25.3457 23.6816 26.4258C22.7172 27.506 21.3888 28.1933 19.95 28.3565C19.6706 28.8554 19.2631 29.2707 18.7697 29.5596C18.2762 29.8485 17.7147 30.0005 17.1429 30H13.9286C13.0761 30 12.2585 29.6614 11.6557 29.0586C11.0529 28.4558 10.7143 27.6383 10.7143 26.7858C10.7143 25.9334 11.0529 25.1159 11.6557 24.5131C12.2585 23.9103 13.0761 23.5717 13.9286 23.5717H17.1429C18.3043 23.5717 19.3221 24.1867 19.8857 25.1102C20.4763 24.9744 21.0035 24.6424 21.381 24.1684C21.7586 23.6943 21.9642 23.1063 21.9643 22.5003V9.91576C21.9496 9.01537 21.7566 8.12682 21.3963 7.30147C21.0361 6.47613 20.5159 5.73037 19.8657 5.10731C19.2155 4.48424 18.4483 3.99622 17.6083 3.67147C16.7684 3.34672 15.8724 3.19168 14.9721 3.2153Z" fill="white"/>
</svg>
