<svg width="32" height="33" viewBox="0 0 32 33" fill="none" xmlns="http://www.w3.org/2000/svg">
<path d="M9.57542 16.6033C10.9201 19.3801 13.1655 21.6197 15.9457 22.9572C16.1508 23.0544 16.3777 23.0964 16.6039 23.0792C16.8302 23.062 17.0481 22.9862 17.2361 22.8592L21.3197 20.1314C21.5001 20.0091 21.7086 19.9344 21.9256 19.9144C22.1427 19.8944 22.3613 19.9297 22.5611 20.0171L30.2054 23.3003C30.4667 23.409 30.685 23.6006 30.8267 23.8456C30.9683 24.0906 31.0255 24.3753 30.9895 24.656C30.7472 26.5471 29.8242 28.2851 28.3931 29.5448C26.962 30.8045 25.121 31.4996 23.2144 31.5C17.3228 31.5 11.6725 29.1596 7.50646 24.9935C3.34044 20.8275 1 15.1772 1 9.28557C1.00043 7.37904 1.69553 5.538 2.95524 4.10692C4.21495 2.67584 5.95294 1.75281 7.84401 1.51052C8.12469 1.47446 8.40944 1.53168 8.65442 1.67335C8.89939 1.81502 9.091 2.03329 9.19974 2.29456L12.4829 9.95527C12.5683 10.1518 12.604 10.3664 12.5869 10.58C12.5698 10.7937 12.5004 10.9998 12.3849 11.1803L9.65709 15.3292C9.53565 15.5169 9.46437 15.7325 9.45008 15.9556C9.43578 16.1786 9.47893 16.4016 9.57542 16.6033V16.6033Z" stroke="#E9F4FF" stroke-width="2" stroke-linecap="round" stroke-linejoin="round"/>
</svg>
