<svg width="89" height="71" viewBox="0 0 89 71" fill="none" xmlns="http://www.w3.org/2000/svg">
<path d="M66.375 44.5C73.4844 44.5 79.5 38.6211 79.5 31.375C79.5 24.2656 73.4844 18.25 66.375 18.25C59.1289 18.25 53.25 24.2656 53.25 31.375C53.25 38.6211 59.1289 44.5 66.375 44.5ZM72.9375 48.875H72.8008C72.5273 48.875 72.2539 49.0117 71.8438 49.1484C70.2031 49.6953 68.2891 49.9688 66.375 49.9688C64.3242 49.9688 62.4102 49.6953 60.7695 49.1484C60.3594 49.0117 60.0859 49.0117 59.8125 49.0117V48.875C51.3359 48.875 44.5 55.8477 44.5 64.1875C44.5 64.3242 44.3633 64.3242 44.5 64.3242C44.5 67.8789 47.3711 70.75 51.0625 70.75H81.6875C85.2422 70.75 88.1133 67.8789 88.25 64.3242C88.25 64.3242 88.25 64.3242 88.25 64.1875C88.25 55.8477 81.2773 48.875 72.9375 48.875ZM45.7305 50.3789C46.6875 49.4219 47.7812 48.6016 48.875 47.918V18.25C48.875 15.9258 46.8242 13.875 44.5 13.875H40.125V5.125C40.125 2.80078 38.0742 0.75 35.75 0.75H13.875C11.4141 0.75 9.5 2.80078 9.5 5.125V13.875H5.125C2.66406 13.875 0.75 15.9258 0.75 18.25V68.5625C0.75 69.793 1.70703 70.75 2.9375 70.75H42.3125C40.9453 68.9727 40.125 66.7852 40.125 64.3242C39.9883 64.3242 39.9883 64.1875 39.9883 64.1875C39.9883 58.8555 42.3125 53.9336 45.7305 50.3789ZM20.4375 55.9844C20.4375 56.9414 19.6172 57.625 18.7969 57.625H13.3281C12.3711 57.625 11.6875 56.9414 11.6875 55.9844V50.5156C11.6875 49.6953 12.3711 48.875 13.3281 48.875H18.7969C19.6172 48.875 20.4375 49.6953 20.4375 50.5156V55.9844ZM20.4375 38.4844C20.4375 39.4414 19.6172 40.125 18.7969 40.125H13.3281C12.3711 40.125 11.6875 39.4414 11.6875 38.4844V33.0156C11.6875 32.1953 12.3711 31.375 13.3281 31.375H18.7969C19.6172 31.375 20.4375 32.1953 20.4375 33.0156V38.4844ZM27 21.8047C27 22.3516 26.5898 22.625 26.1797 22.625H23.4453C22.8984 22.625 22.625 22.3516 22.625 21.8047V18.25H19.0703C18.5234 18.25 18.25 17.9766 18.25 17.4297V14.6953C18.25 14.2852 18.5234 13.875 19.0703 13.875H22.625V10.3203C22.625 9.91016 22.8984 9.5 23.4453 9.5H26.1797C26.5898 9.5 27 9.91016 27 10.3203V13.875H30.5547C30.9648 13.875 31.375 14.2852 31.375 14.6953V17.4297C31.375 17.9766 30.9648 18.25 30.5547 18.25H27V21.8047ZM37.9375 55.9844C37.9375 56.9414 37.1172 57.625 36.2969 57.625H30.8281C29.8711 57.625 29.1875 56.9414 29.1875 55.9844V50.5156C29.1875 49.6953 29.8711 48.875 30.8281 48.875H36.2969C37.1172 48.875 37.9375 49.6953 37.9375 50.5156V55.9844ZM37.9375 38.4844C37.9375 39.4414 37.1172 40.125 36.2969 40.125H30.8281C29.8711 40.125 29.1875 39.4414 29.1875 38.4844V33.0156C29.1875 32.1953 29.8711 31.375 30.8281 31.375H36.2969C37.1172 31.375 37.9375 32.1953 37.9375 33.0156V38.4844Z" fill="#80B4FB"/>
</svg>
