<svg width="71" height="71" viewBox="0 0 71 71" fill="none" xmlns="http://www.w3.org/2000/svg">
<path d="M26.75 29.1875C26.75 26.8633 24.6992 24.8125 22.375 24.8125H20.1875C15.2656 24.8125 11.4375 28.7773 11.4375 33.5625V40.125C11.4375 45.0469 15.2656 48.875 20.1875 48.875H22.375C24.6992 48.875 26.75 46.9609 26.75 44.5V29.1875ZM50.8125 48.875C55.5977 48.875 59.5625 45.0469 59.5625 40.125V33.5625C59.5625 28.7773 55.5977 24.8125 50.8125 24.8125H48.625C46.1641 24.8125 44.25 26.8633 44.25 29.1875V44.5C44.25 46.9609 46.1641 48.875 48.625 48.875H50.8125ZM35.5 0.75C15.9492 0.75 1.04688 17.0195 0.5 35.75V37.9375C0.5 39.168 1.45703 40.125 2.6875 40.125H4.875C5.96875 40.125 7.0625 39.168 7.0625 37.9375V35.75C7.0625 20.1641 19.7773 7.3125 35.5 7.3125C51.0859 7.3125 63.9375 20.1641 63.9375 35.75H63.8008C63.8008 36.1602 63.9375 58.4453 63.9375 58.4453C63.9375 61.7266 61.3398 64.1875 58.0586 64.1875H44.25C44.25 60.6328 41.2422 57.625 37.6875 57.625H33.3125C29.6211 57.625 26.75 60.6328 26.75 64.1875C26.75 67.8789 29.6211 70.75 33.3125 70.75H58.0586C64.8945 70.75 70.5 65.2812 70.5 58.4453V35.75C69.8164 17.0195 54.9141 0.75 35.5 0.75Z" fill="#C1A306"/>
</svg>
