<svg width="63" height="71" viewBox="0 0 63 71" fill="none" xmlns="http://www.w3.org/2000/svg">
<path d="M0.875 64.1875C0.875 67.8789 3.74609 70.75 7.4375 70.75H55.5625C59.1172 70.75 62.125 67.8789 62.125 64.1875V27H0.875V64.1875ZM44.625 37.3906C44.625 36.5703 45.3086 35.75 46.2656 35.75H51.7344C52.5547 35.75 53.375 36.5703 53.375 37.3906V42.8594C53.375 43.8164 52.5547 44.5 51.7344 44.5H46.2656C45.3086 44.5 44.625 43.8164 44.625 42.8594V37.3906ZM44.625 54.8906C44.625 54.0703 45.3086 53.25 46.2656 53.25H51.7344C52.5547 53.25 53.375 54.0703 53.375 54.8906V60.3594C53.375 61.3164 52.5547 62 51.7344 62H46.2656C45.3086 62 44.625 61.3164 44.625 60.3594V54.8906ZM27.125 37.3906C27.125 36.5703 27.8086 35.75 28.7656 35.75H34.2344C35.0547 35.75 35.875 36.5703 35.875 37.3906V42.8594C35.875 43.8164 35.0547 44.5 34.2344 44.5H28.7656C27.8086 44.5 27.125 43.8164 27.125 42.8594V37.3906ZM27.125 54.8906C27.125 54.0703 27.8086 53.25 28.7656 53.25H34.2344C35.0547 53.25 35.875 54.0703 35.875 54.8906V60.3594C35.875 61.3164 35.0547 62 34.2344 62H28.7656C27.8086 62 27.125 61.3164 27.125 60.3594V54.8906ZM9.625 37.3906C9.625 36.5703 10.3086 35.75 11.2656 35.75H16.7344C17.5547 35.75 18.375 36.5703 18.375 37.3906V42.8594C18.375 43.8164 17.5547 44.5 16.7344 44.5H11.2656C10.3086 44.5 9.625 43.8164 9.625 42.8594V37.3906ZM9.625 54.8906C9.625 54.0703 10.3086 53.25 11.2656 53.25H16.7344C17.5547 53.25 18.375 54.0703 18.375 54.8906V60.3594C18.375 61.3164 17.5547 62 16.7344 62H11.2656C10.3086 62 9.625 61.3164 9.625 60.3594V54.8906ZM55.5625 9.5H49V2.9375C49 1.84375 47.9062 0.75 46.8125 0.75H42.4375C41.207 0.75 40.25 1.84375 40.25 2.9375V9.5H22.75V2.9375C22.75 1.84375 21.6562 0.75 20.5625 0.75H16.1875C14.957 0.75 14 1.84375 14 2.9375V9.5H7.4375C3.74609 9.5 0.875 12.5078 0.875 16.0625V22.625H62.125V16.0625C62.125 12.5078 59.1172 9.5 55.5625 9.5Z" fill="#0063CB"/>
</svg>
