<svg width="71" height="71" viewBox="0 0 71 71" fill="none" xmlns="http://www.w3.org/2000/svg">
<path d="M61.6133 16.0625C56.8281 16.1992 53 20.0273 53 24.6758C52.8633 27.957 54.6406 30.9648 57.375 32.4688V47.7812C57.375 55.7109 50.4023 62 42.0625 62C33.8594 62 27.0234 55.9844 26.75 48.4648C36.7305 46.4141 44.25 37.6641 44.25 27V5.80859C44.25 4.30469 43.0195 2.9375 41.5156 2.66406L32.9023 0.886719C31.125 0.476562 29.4844 1.70703 29.0742 3.48438L28.6641 5.53516C28.2539 7.3125 29.4844 9.08984 31.2617 9.5L35.3633 10.3203V26.8633C35.3633 34.1094 29.6211 40.125 22.375 40.125C15.1289 40.2617 9.11328 34.3828 9.11328 27V10.3203L13.3516 9.5C15.1289 9.08984 16.3594 7.44922 15.9492 5.67188L15.5391 3.48438C15.1289 1.70703 13.4883 0.476562 11.7109 0.886719L3.09766 2.52734C1.59375 2.9375 0.5 4.30469 0.5 5.80859V27C0.5 37.6641 8.01953 46.4141 18 48.4648C18.2734 60.9062 28.9375 70.75 42.0625 70.75C55.3242 70.75 66.125 60.4961 66.125 47.7812V32.4688C68.7227 30.9648 70.5 28.0938 70.5 24.8125C70.5 20.0273 66.3984 16.0625 61.6133 16.0625ZM61.75 27C60.5195 27 59.5625 26.043 59.5625 24.8125C59.5625 23.7188 60.5195 22.625 61.75 22.625C62.8438 22.625 63.9375 23.7188 63.9375 24.8125C63.9375 26.043 62.8438 27 61.75 27Z" fill="#FE9901"/>
</svg>
