<svg width="81" height="64" viewBox="0 0 81 64" fill="none" xmlns="http://www.w3.org/2000/svg">
<path d="M15.4375 0.125C6.96094 0.125 0.125 7.09766 0.125 15.4375V46.0625C0.125 54.5391 6.96094 61.375 15.4375 61.375C23.7773 61.375 30.75 54.5391 30.75 46.0625V15.4375C30.75 7.09766 23.7773 0.125 15.4375 0.125ZM22 30.75H8.875V15.4375C8.875 11.8828 11.7461 8.875 15.4375 8.875C18.9922 8.875 22 11.8828 22 15.4375V30.75ZM41.0039 26.7852C40.5938 26.2383 39.7734 26.375 39.3633 26.9219C33.2109 35.3984 33.8945 47.4297 41.5508 55.0859C49.207 62.7422 61.2383 63.4258 69.7148 57.2734C70.2617 56.8633 70.3984 56.043 69.8516 55.6328L41.0039 26.7852ZM72.4492 24.1875C64.793 16.3945 52.7617 15.8477 44.2852 22C43.7383 22.4102 43.6016 23.2305 44.1484 23.6406L72.9961 52.4883C73.4062 52.8984 74.2266 52.8984 74.6367 52.3516C80.7891 43.875 80.1055 31.8438 72.4492 24.1875Z" fill="#ED4C58"/>
</svg>
