<svg width="67" height="65" viewBox="0 0 67 65" fill="none" xmlns="http://www.w3.org/2000/svg">
<rect x="2" y="6" width="63" height="58" rx="9" fill="#0D5AFD"/>
<path d="M47.8696 25.2617L42.1958 19.5879C41.5805 18.9727 40.7602 18.5625 39.8716 18.5625H21.5513C19.7055 18.5625 18.27 20.0664 18.27 21.8438V45.9062C18.27 47.752 19.7055 49.1875 21.5513 49.1875H45.6138C47.3911 49.1875 48.895 47.752 48.895 45.9062V27.5859C48.895 26.6973 48.4848 25.877 47.8696 25.2617ZM33.5825 44.8125C31.1216 44.8125 29.2075 42.8984 29.2075 40.4375C29.2075 38.0449 31.1216 36.0625 33.5825 36.0625C35.9751 36.0625 37.9575 38.0449 37.9575 40.4375C37.9575 42.8984 35.9751 44.8125 33.5825 44.8125ZM40.145 24.0312V30.8672C40.145 31.3457 39.7348 31.6875 39.3247 31.6875H23.4653C22.9868 31.6875 22.645 31.3457 22.645 30.8672V23.7578C22.645 23.3477 22.9868 22.9375 23.4653 22.9375H39.0513C39.2563 22.9375 39.4614 23.0742 39.6665 23.2109L39.8716 23.416C40.0083 23.6211 40.145 23.8262 40.145 24.0312Z" fill="#FBFCFF"/>
</svg>
