<svg width="89" height="62" viewBox="0 0 89 62" fill="none" xmlns="http://www.w3.org/2000/svg">
<path d="M0.75 57C0.75 59.4609 2.66406 61.375 5.125 61.375H83.875C86.1992 61.375 88.25 59.4609 88.25 57V13.25H0.75V57ZM62 28.5625C62 27.4688 62.957 26.375 64.1875 26.375H77.3125C78.4062 26.375 79.5 27.4688 79.5 28.5625V32.9375C79.5 34.168 78.4062 35.125 77.3125 35.125H64.1875C62.957 35.125 62 34.168 62 32.9375V28.5625ZM62 44.9688C62 44.4219 62.4102 43.875 63.0938 43.875H78.4062C78.9531 43.875 79.5 44.4219 79.5 44.9688V47.1562C79.5 47.8398 78.9531 48.25 78.4062 48.25H63.0938C62.4102 48.25 62 47.8398 62 47.1562V44.9688ZM9.5 31.8438C9.5 31.2969 9.91016 30.75 10.5938 30.75H52.1562C52.7031 30.75 53.25 31.2969 53.25 31.8438V34.0312C53.25 34.7148 52.7031 35.125 52.1562 35.125H10.5938C9.91016 35.125 9.5 34.7148 9.5 34.0312V31.8438ZM9.5 44.9688C9.5 44.4219 9.91016 43.875 10.5938 43.875H34.6562C35.2031 43.875 35.75 44.4219 35.75 44.9688V47.1562C35.75 47.8398 35.2031 48.25 34.6562 48.25H10.5938C9.91016 48.25 9.5 47.8398 9.5 47.1562V44.9688ZM86.0625 0.125H2.9375C1.70703 0.125 0.75 1.21875 0.75 2.3125V8.875H88.25V2.3125C88.25 1.21875 87.1562 0.125 86.0625 0.125Z" fill="#C59191"/>
</svg>
