<svg width="89" height="71" viewBox="0 0 89 71" fill="none" xmlns="http://www.w3.org/2000/svg">
<path d="M5.125 31.375C4.98828 31.375 4.98828 31.375 4.98828 31.375C2.66406 31.375 0.75 33.4258 0.75 35.75V53.25C0.75 53.3867 0.613281 53.3867 0.613281 53.3867C0.613281 55.7109 2.66406 57.625 4.98828 57.625H5.125H9.5V31.375H5.125ZM75.125 24.8125C75.125 18.7969 70.2031 13.875 64.1875 13.875H48.875V5.125C48.875 2.80078 46.8242 0.75 44.5 0.75C42.0391 0.75 40.125 2.80078 40.125 5.125V13.875H24.8125C24.6758 13.875 24.6758 13.875 24.6758 13.875C18.6602 13.875 13.875 18.7969 13.875 24.8125V62C13.875 66.9219 17.7031 70.75 22.625 70.75H66.375C71.1602 70.75 74.9883 66.9219 75.125 62V24.8125ZM36.8438 35.75C36.8438 38.8945 34.3828 41.2188 31.375 41.2188C28.2305 41.2188 25.9062 38.8945 25.9062 35.75C25.9062 32.7422 28.2305 30.2812 31.375 30.2812C34.3828 30.2812 36.8438 32.7422 36.8438 35.75ZM35.75 53.25V57.625H27V53.25H35.75ZM48.875 53.25V57.625H40.125V53.25H48.875ZM63.0938 35.75C63.0938 38.8945 60.6328 41.2188 57.625 41.2188C54.4805 41.2188 52.1562 38.8945 52.1562 35.75C52.1562 32.7422 54.4805 30.2812 57.625 30.2812C60.6328 30.2812 63.0938 32.7422 63.0938 35.75ZM62 53.25V57.625H53.25V53.25H62ZM88.25 35.75C88.25 33.4258 86.1992 31.375 83.875 31.375H79.5V57.625H83.875V57.7617C86.1992 57.7617 88.25 55.7109 88.25 53.3867V53.25V35.75Z" fill="#285680"/>
</svg>
