<svg width="71" height="53" viewBox="0 0 71 53" fill="none" xmlns="http://www.w3.org/2000/svg">
<path d="M45.8906 35.5H51.2227C52.043 35.5 53 34.6797 53 33.8594V15.4023C53 14.582 52.043 13.625 51.2227 13.625H45.8906C45.0703 13.625 44.25 14.582 44.25 15.4023V33.8594C44.25 34.6797 45.0703 35.5 45.8906 35.5ZM59.0156 35.5H64.3477C65.168 35.5 66.125 34.6797 66.125 33.8594V2.27734C66.125 1.45703 65.168 0.5 64.3477 0.5H59.0156C58.1953 0.5 57.375 1.45703 57.375 2.27734V33.8594C57.375 34.6797 58.1953 35.5 59.0156 35.5ZM19.6406 35.5H24.9727C25.793 35.5 26.75 34.6797 26.75 33.8594V24.1523C26.75 23.332 25.793 22.375 24.9727 22.375H19.6406C18.8203 22.375 18 23.332 18 24.1523V33.8594C18 34.6797 18.8203 35.5 19.6406 35.5ZM32.7656 35.5H38.0977C38.918 35.5 39.875 34.6797 39.875 33.8594V6.65234C39.875 5.83203 38.918 4.875 38.0977 4.875H32.7656C31.9453 4.875 31.125 5.83203 31.125 6.65234V33.8594C31.125 34.6797 31.9453 35.5 32.7656 35.5ZM68.3125 44.25H9.25V2.6875C9.25 1.59375 8.15625 0.5 7.0625 0.5H2.6875C1.45703 0.5 0.5 1.59375 0.5 2.6875V48.625C0.5 51.0859 2.41406 53 4.875 53H68.3125C69.4062 53 70.5 52.043 70.5 50.8125V46.4375C70.5 45.3438 69.4062 44.25 68.3125 44.25Z" fill="#FFD301"/>
</svg>
